<svg xmlns="http://www.w3.org/2000/svg" viewBox="0 0 100 100"><defs><style>.a{fill:#1e1e1e;}.b{fill:#fff;}</style></defs><title>withzing-logo1</title><path class="a" d="M100,50A50,50,0,1,1,50,0a50.03,50.03,0,0,1,50,50"/><path class="b" d="M19.819,67.876c0-.13.13-.13.13-.259L31.736,51.3h-11.4a.648.648,0,0,1,0-1.3H32.772a.779.779,0,0,1,.518.13l.13.13a.826.826,0,0,1,0,.777L21.5,67.358H32.9a.648.648,0,1,1,0,1.3H20.078a.127.127,0,0,1-.13-.13c-.259,0-.259-.389-.13-.648"/><path class="b" d="M38.6,50.648a.648.648,0,1,1,1.3,0V68.135a.648.648,0,1,1-1.3,0Z"/><path class="b" d="M47.927,52.721V68.135a.648.648,0,1,1-1.3,0V50.907c-.13-.259,0-.518.259-.777.259-.13.777-.13.907.13l11.4,15.8V50.778a.648.648,0,1,1,1.3,0V68.135a.612.612,0,0,1-.648.648.673.673,0,0,1-.518-.259.127.127,0,0,1-.13-.13Z"/><path class="b" d="M74.741,60.363a.648.648,0,0,1,0-1.3H80.7a.694.694,0,0,1,.648.648v6.606a.982.982,0,0,1-.259.518A9.872,9.872,0,0,1,75,68.912a9.521,9.521,0,1,1,0-19.041,9.872,9.872,0,0,1,6.088,2.073c.259.13.259.648.13.907a.8.8,0,0,1-.907.13,8.137,8.137,0,0,0-5.181-1.813,8.268,8.268,0,0,0-8.42,8.161,8.376,8.376,0,0,0,8.42,8.29,8.885,8.885,0,0,0,4.922-1.554v-5.7Z"/><path class="b" d="M18.653,34.586,17.228,34.2v-.389h3.238a3.73,3.73,0,0,1,3.627,2.2L27.2,41.969l1.554-3.756-1.813-3.627L25.518,34.2v-.389h3.238a3.73,3.73,0,0,1,3.627,2.2l3.109,5.959,2.85-7.124-2.073-.777v-.389h5.181v.389l-2.2.777L34.067,47.021H33.29L29.145,38.99l-3.368,8.031H25Z"/><path class="b" d="M45.6,33.809c1.684,0,2.461.777,2.461,2.332v9.974l1.684.389v.389H41.969V46.5l1.684-.389V34.586L41.969,34.2v-.389Z"/><path class="b" d="M52.72,32.514c0-1.554.777-2.332,2.461-2.332h1.943v3.627H61.01v.648H57.124v8.031c0,1.932.005,4.145,2.073,4.145,1.144,0,2.461-1.322,2.461-3.368h.648a4.144,4.144,0,0,1-1.036,2.979,3.711,3.711,0,0,1-2.72,1.036c-4.28,0-5.829-2.186-5.829-4.922V34.327H50.777v-.648H52.72Z"/><path class="b" d="M74.741,36.529a2.145,2.145,0,0,0-2.2-2.2,2.765,2.765,0,0,0-2.591,2.2v9.715l1.684.389v.389H63.86v-.389l1.684-.389V29.4l-1.684-.389v-.389h3.627c1.684,0,2.461.777,2.461,2.332V35.1A4.76,4.76,0,0,1,73.7,33.42c3.422,0,5.44,2.256,5.44,4.275v8.42l1.684.389v.389H77.2c-1.684,0-2.461-.777-2.461-2.332Z"/><ellipse class="b" cx="45.855" cy="30.571" rx="2.387" ry="2.203"/></svg>